<svg width="240" height="93" viewBox="0 0 240 93" fill="none" xmlns="http://www.w3.org/2000/svg">
<path d="M221.611 92.9596C210.386 92.9596 203.73 89.6659 203.221 84.9227H213.952C213.952 86.5039 215.48 88.6086 222.12 88.7393C226.722 88.7393 229.268 87.1585 229.268 85.9699C228.759 84.1268 224.667 83.996 220.591 83.5933C215.99 83.2107 212.424 82.6767 209.86 82.0221C206.294 80.9647 204.239 78.7188 204.239 76.3522C204.239 72.1319 210.386 68.8382 221.101 68.8382C231.324 68.8382 237.963 71.8704 238.454 76.4829H228.25C228.25 75.304 227.74 73.3204 221.61 73.3204C217.518 73.3204 214.971 73.7131 214.462 75.4251C214.462 77.8022 223.139 77.671 229.778 78.5876C235.908 79.5142 240 81.7501 240 84.9227C240 90.7238 231.833 92.9596 221.611 92.9596ZM26.0493 54.0386L61.2837 42.3051L80.1826 60.8975H32.6887" fill="black"/>
<path d="M100.142 92.2601V68.7937V92.2601Z" fill="black"/>
<path d="M100.142 92.2601V68.7937" stroke="black" stroke-width="12.8876"/>
<path d="M9.69623 80.8739C9.69623 84.5598 15.3164 87.5916 21.4285 87.5916C28.0855 87.5916 33.1792 84.5598 33.1792 80.8739C33.1792 77.3187 28.0855 74.1562 21.4285 74.1562C15.3164 74.1562 9.69623 77.3187 9.69623 80.8739ZM20.9197 93C9.69543 93 0 87.5916 0 80.8739C0 74.1562 9.69623 68.879 20.9197 68.879C25.5214 68.879 29.6135 69.5437 33.1792 70.9836V69.1405H43.4018V92.466H33.18V91.016C30.1239 92.3353 25.5222 93 20.9205 93H20.9197ZM157.295 60.892L108.273 11.8642L143.507 0L204.789 60.892H157.295ZM56.6805 80.8739C56.6805 84.5598 61.7926 87.5916 68.4312 87.5916C74.5433 87.5916 80.1819 84.5598 80.1819 80.8739C80.1819 77.3187 74.5433 74.1562 68.4312 74.1562C61.7918 74.1562 56.6805 77.3187 56.6805 80.8739ZM67.9216 93C56.1709 93 46.9851 87.5916 46.9851 80.8739C46.9851 74.1562 56.1709 68.879 67.9216 68.879C72.5057 68.879 76.5986 69.5437 80.1819 70.9836V61.1035H90.3869V92.466H80.1811V91.016C76.5978 92.3353 72.5057 93 67.9208 93H67.9216ZM67.4184 33.0833L103.162 21.4911L142.489 60.8906H105.2V66.6917H94.9942V60.8906L67.4184 33.0833ZM233.378 66.8743C230.814 66.8743 228.268 65.555 228.268 63.9738C228.268 62.3925 230.814 61.0732 233.378 61.0732C236.434 61.0732 238.49 62.393 238.49 63.9738C238.49 65.5546 236.434 66.8748 233.378 66.8748V66.8743ZM233.378 61.4764C230.814 61.4764 229.286 62.6545 229.286 63.9738C229.286 65.2931 230.814 66.4817 233.378 66.4817C235.925 66.4817 237.454 65.2935 237.454 63.9738C237.454 62.654 235.925 61.4764 233.378 61.4764Z" fill="black"/>
<path d="M234.433 65.5651L233.413 64.2458H232.395V65.5651H231.622V62.4026H233.923C234.433 62.4026 235.451 62.8058 235.451 63.3292C235.451 63.8527 234.941 64.1151 234.433 64.2458L235.451 65.5651H234.433ZM233.413 62.8058H232.395V63.8531H233.413C234.433 63.8531 234.433 63.7224 234.433 63.3292C234.433 63.0577 234.433 62.8058 233.413 62.8058ZM165.931 80.8739C165.931 84.5598 171.043 87.5916 177.682 87.5916C183.811 87.5916 189.415 84.5598 189.415 80.8739C189.415 77.3187 183.811 74.1562 177.682 74.1562C171.042 74.1562 165.931 77.3187 165.931 80.8739ZM177.155 93C165.422 93 156.236 87.5916 156.236 80.8739C156.236 74.1562 165.422 68.879 177.154 68.879C181.757 68.879 185.849 69.5437 189.415 70.9836V69.1405H199.128V92.466H189.416V91.016C185.849 92.3353 181.757 93 177.154 93H177.155ZM118.982 80.8739C118.982 84.5598 124.602 87.5916 130.732 87.5916C137.372 87.5916 142.482 84.5598 142.482 80.8739C142.482 77.3187 137.371 74.1562 130.732 74.1562C124.602 74.1562 118.982 77.3187 118.982 80.8739ZM142.482 61.1035H152.687V92.466H142.482V91.016C139.409 92.3353 135.317 93 130.732 93C118.982 93 109.286 87.5916 109.286 80.8739C109.286 74.1562 118.982 68.879 130.732 68.879C135.316 68.879 139.409 69.5437 142.482 70.9836V61.1035Z" fill="black"/>
</svg>
