<svg width="240" height="78" viewBox="0 0 240 78" fill="none" xmlns="http://www.w3.org/2000/svg">
<g clip-path="url(#clip0_232_119)">
<path fill-rule="evenodd" clip-rule="evenodd" d="M215.062 56.3065V57.0045H222.707L222.569 41.5193L228.616 57.0045H236.471V25.8771H228.823L228.894 41.3254L222.916 25.8771H215.062V56.3065ZM132.131 56.3065V57.0045H140.611C142.042 57.0487 143.476 56.9567 144.852 56.7326C146.034 56.5776 147.146 56.2272 147.909 55.6843C148.118 55.5675 148.327 55.4521 148.465 55.2957H148.536C149.238 54.6689 149.775 53.9897 150.134 53.2783C150.968 51.532 151.455 49.7468 151.734 47.9616V47.9219C152.023 43.9782 152.07 40.03 151.872 36.0844C151.872 34.5703 151.663 33.018 151.106 31.5046C150.829 30.4952 150.272 29.4865 149.509 28.516C148.884 27.7395 147.909 27.0408 146.588 26.5361C146.519 26.4972 146.45 26.4583 146.381 26.4583H146.31C145.823 26.2643 145.267 26.1482 144.642 26.0704C143.876 25.9543 143.044 25.8764 142.279 25.8764H132.131V56.3065ZM139.359 51.222V31.6214C140.195 31.6214 141.03 31.6214 141.864 31.6992C142.071 31.6992 142.28 31.7382 142.418 31.7771H142.489C142.698 31.8543 142.905 31.971 143.045 32.0878C143.114 32.1268 143.114 32.1657 143.184 32.2429C143.39 32.5529 143.6 32.8644 143.738 33.1744C144.085 33.8341 144.225 34.5328 144.294 35.2314C144.642 38.2589 144.713 41.2858 144.572 44.314C144.572 45.5945 144.434 46.875 144.225 48.1562C144.086 48.971 143.738 49.7475 143.322 50.5226C143.251 50.6394 143.113 50.7562 143.044 50.8333H142.973C142.902 50.9501 142.696 51.0273 142.555 51.0655H142.486C142.277 51.1441 142 51.1823 141.79 51.1823H141.304L139.359 51.222ZM83.7477 56.3065V57.0045H90.6294V43.9629C91.4636 43.9629 92.2281 44.0025 92.9926 44.0797H93.0623C93.2702 44.0797 93.4781 44.1193 93.6873 44.1568C94.0347 44.2354 94.2426 44.3508 94.5215 44.5072C94.7992 44.779 95.0768 45.0884 95.1466 45.3991C95.3558 45.9045 95.4255 46.4475 95.494 46.9522L95.6334 52.5407C95.6334 53.8602 95.7729 55.1407 96.0505 56.4212L96.19 57.0038H104.948L103.976 55.9179C103.558 55.4521 103.211 54.9864 103.072 54.442C102.932 53.8609 102.794 53.2783 102.794 52.6957L102.516 46.2528C102.516 45.3213 102.377 44.3508 102.099 43.4582C101.884 42.6914 101.361 41.9617 100.569 41.324L100.499 41.2844C100.327 41.1494 100.116 41.0315 99.8742 40.9354C100.012 40.8582 100.152 40.779 100.222 40.7018C101.055 40.0421 101.681 39.3045 101.96 38.4897C102.724 36.122 102.864 33.7159 102.307 31.3482C102.185 30.4415 101.809 29.5512 101.194 28.7093C100.707 27.9327 99.873 27.273 98.7611 26.7301L98.6914 26.6912C97.5098 26.2254 96.0493 25.9146 94.5203 25.8757H83.7452V56.3065H83.7477V56.3065ZM90.6306 38.4522V31.4274H92.2293C92.7859 31.4274 93.2715 31.4663 93.828 31.5824C94.1069 31.6603 94.3846 31.7382 94.5925 31.8932C94.5925 31.8932 94.5925 31.9321 94.6622 31.9321V31.971C94.732 32.01 94.732 32.0482 94.8017 32.0871C95.0793 32.3979 95.2885 32.7469 95.3582 33.0576C95.6359 34.3381 95.5662 35.6193 95.2885 36.8609C95.2188 37.2106 95.0109 37.5207 94.8017 37.8314C94.6622 37.9864 94.4543 38.1032 94.2451 38.2193C93.8069 38.3374 93.3379 38.416 92.8556 38.4522H90.6306ZM44.125 41.4408C44.0552 43.226 44.125 44.9737 44.2644 46.7589C44.3341 48.1562 44.5421 49.5535 44.8197 50.9501V50.9884C45.0986 52.3078 45.7237 53.628 46.6276 54.9085C47.1145 55.6468 47.9487 56.3072 48.9908 56.8884C49.1987 57.0052 49.4776 57.0823 49.6856 57.1991H49.7553C50.2421 57.3931 50.7974 57.5098 51.354 57.5877C52.5356 57.7427 53.7172 57.7817 54.9 57.6259C55.607 57.5422 56.2869 57.3985 56.9159 57.1998V57.1595H56.9856C58.0297 56.7396 58.8667 56.179 59.4185 55.53C59.558 55.375 59.7659 55.2192 59.8356 55.0642C60.8778 53.7051 61.5738 52.2307 61.7817 50.7562C62.4777 45.9428 62.6856 41.1307 62.3383 36.3569C62.268 34.7995 62.0594 33.2451 61.7132 31.6992C61.4356 30.4187 60.8093 29.1375 59.9751 27.9341C59.4189 27.1986 58.5897 26.5373 57.5421 25.9939C57.2632 25.8771 57.0553 25.761 56.8461 25.6831L56.7764 25.6442C56.2745 25.4878 55.7366 25.3703 55.1777 25.2952C54.0126 25.1395 52.7981 25.1395 51.6329 25.2952C50.9256 25.3787 50.2457 25.5227 49.6171 25.7221V25.761H49.5474C48.5737 26.1878 47.7395 26.7704 47.1144 27.3912L46.6973 27.857C45.7319 29.1594 45.0998 30.5313 44.8197 31.9321C44.2644 35.0757 43.9868 38.2589 44.125 41.4408ZM50.7987 41.4797V41.4401C50.7987 39.5395 50.7987 37.5985 50.9369 35.6965C50.9369 34.6878 51.1461 33.7173 51.4237 32.7469V32.7079C51.5021 32.3189 51.6895 31.9391 51.979 31.5824C52.1185 31.4274 52.2579 31.2724 52.5356 31.1556L52.6751 31.0784C53.0224 30.9623 53.5093 30.9623 53.9264 31.0784C53.9264 31.1174 53.9961 31.1174 54.0658 31.1556C54.1356 31.1945 54.2738 31.2335 54.3435 31.2724C54.6211 31.5053 54.8303 31.7382 54.9 32.01C55.2474 32.7086 55.3869 33.4073 55.5251 34.1059C55.8027 37.91 55.8725 41.714 55.733 45.5562V45.5945C55.7439 47.0738 55.5812 48.5519 55.2462 50.0193C55.1682 50.4456 54.9812 50.8635 54.6909 51.2602C54.5514 51.4166 54.4132 51.5709 54.1343 51.6877C54.1343 51.7273 53.9949 51.7649 53.9264 51.8045C53.579 51.8817 53.0922 51.8817 52.7448 51.7649C52.6751 51.7649 52.6053 51.7267 52.6053 51.7267H52.5356C52.4502 51.6818 52.3798 51.6288 52.3277 51.5702C52.05 51.3763 51.8408 51.1045 51.7026 50.8327C51.425 50.2119 51.2158 49.5904 51.1473 48.9306C50.8684 46.4482 50.729 43.9636 50.7987 41.4797V41.4797ZM4.71141 46.2146H3.52856V50.1736C3.52856 51.3387 3.73774 52.5025 4.22457 53.628C4.58061 54.4449 5.19221 55.2204 6.03121 55.9186C6.7957 56.6165 8.04702 57.1595 9.4378 57.4313C11.3839 57.8199 13.6089 57.8199 15.555 57.3931C16.7366 57.1212 17.8484 56.6937 18.6142 56.1508C19.7707 55.278 20.5555 54.2694 20.9089 53.2018C21.1851 52.3957 21.3247 51.5769 21.326 50.7562L21.3957 26.5758V25.8771H13.1233V45.7481C13.193 47.4179 13.1233 49.0871 13.0536 50.7937C13.0536 51.0655 12.9838 51.3763 12.8456 51.687C12.8456 51.7642 12.7759 51.8421 12.7062 51.9192C12.6365 51.9588 12.6365 51.9978 12.5667 51.9978C12.5023 52.0312 12.4211 52.0528 12.3341 52.0596C12.247 52.0665 12.1583 52.0582 12.0799 52.036L11.9417 51.9978C11.8572 51.9386 11.7873 51.8733 11.7338 51.8038L11.5258 51.4534C11.4561 51.1816 11.3864 50.9105 11.3864 50.6387V46.2139H4.71141V46.2146V46.2146Z" fill="black"/>
<path fill-rule="evenodd" clip-rule="evenodd" d="M86.807 47.8455C85.7321 48.8402 84.2256 49.6676 82.4267 50.2515C81.9399 50.4454 81.3149 50.5233 80.7583 50.5233C79.9938 50.5233 79.2991 50.5629 78.5346 50.6018C77.9083 50.6401 77.3517 50.7569 76.8661 50.9891L76.5188 51.2609V51.3777C76.5188 51.4173 76.5885 51.4548 76.657 51.4945C76.7254 51.5341 76.8661 51.5716 77.0741 51.5716C77.5609 51.6112 78.1872 51.6112 78.7425 51.6112C79.2991 51.6112 79.8556 51.6112 80.4109 51.6495C80.5504 51.6495 80.6898 51.6891 80.828 51.728L80.8978 51.7663C80.9675 51.8059 80.9675 51.8434 80.9675 51.8434C80.9675 51.9602 81.0372 52.1153 81.2451 52.1924C81.5241 52.3488 81.8714 52.426 82.2188 52.5032L85.5557 53.1629C86.0425 53.2797 86.4596 53.3965 86.807 53.5904C87.2241 53.1629 87.9201 52.8521 88.6834 52.736C89.5176 52.6589 90.3518 52.6589 91.186 52.7743C92.2979 52.8911 93.4098 53.0079 94.5913 53.085V51.6481C94.4197 51.6847 94.2343 51.6968 94.0521 51.6834C93.8699 51.6699 93.6966 51.6312 93.548 51.5709C93.2205 51.4349 92.9776 51.245 92.8532 51.028C92.5063 50.5204 92.4336 49.9672 92.644 49.4367C92.7137 49.0877 92.9229 48.777 93.269 48.5434C93.5467 48.3112 94.1033 48.2341 94.5901 48.3112V46.6421L95.0072 46.4085H96.2585C97.4123 45.7573 98.6183 45.1356 99.873 44.5454C101.194 44.0025 102.236 43.3032 103.14 42.5656C103.001 42.4105 102.931 42.2562 103.001 42.0998C103.14 41.5569 103.557 41.0911 104.182 40.665C104.53 40.3931 105.017 40.122 105.573 39.9274C105.711 39.8877 105.92 39.8488 106.128 39.8106C106.407 39.7709 106.615 39.8106 106.824 39.9274C108.303 40.7511 109.4 41.7632 110.022 42.8763C110.654 43.7822 111.142 44.7174 111.481 45.6709C111.481 45.7877 111.411 45.9428 111.343 46.0199C111.064 46.1763 110.856 46.3307 110.509 46.4085L108.563 46.9911C108.262 47.0895 108.002 47.2219 107.798 47.3797C107.66 47.4569 107.66 47.5347 107.59 47.6515C107.517 48.4183 107.378 49.1827 107.174 49.9421C107.038 50.432 106.651 50.8896 106.061 51.2602C105.781 51.4025 105.451 51.5106 105.092 51.5775C104.733 51.6444 104.353 51.6687 103.976 51.6488C102.099 53.2018 99.3875 54.3655 96.2598 55.0253C95.8355 55.8774 95.021 56.6532 93.8966 57.2763C91.3255 58.5957 88.4057 59.6823 85.207 60.4588C78.3951 62.1669 72.2082 64.6897 67.1332 67.795C66.1595 68.4547 64.978 69.0359 63.7266 69.5413C63.1951 69.6914 62.6356 69.8085 62.0582 69.8903H61.7793C61.6398 69.8521 61.5016 69.7735 61.3634 69.6963C61.0262 69.5164 60.7443 69.3067 60.5292 69.0755C60.3898 68.9984 60.3213 68.9205 60.2516 68.842H60.1121C60.0424 68.842 60.0424 68.842 60.0424 68.8816L59.9727 68.9212C59.8345 70.0849 59.0002 71.1333 57.6792 71.987C56.9832 72.3756 56.0805 72.6467 55.1068 72.7245L50.5884 73.0353C49.7365 73.1136 48.9141 73.271 48.1554 73.5011C47.7456 73.6329 47.4107 73.8267 47.1893 74.0601C46.9679 74.2935 46.8691 74.5571 46.9041 74.8205C46.9329 75.3358 47.2406 75.8342 47.7867 76.2499C48.3328 76.6656 49.0917 76.9792 49.9633 77.1494C51.9094 77.6151 54.1344 77.6923 56.1502 77.3815C58.5103 77.1501 60.7731 76.6763 62.8239 75.9842C63.7964 75.5956 64.6306 75.1299 65.2569 74.548C67.2727 72.9964 70.1924 71.8702 73.5293 71.4051C74.7109 71.1729 75.8228 70.8225 76.7267 70.3568C78.2569 69.5816 79.9241 68.8823 81.5925 68.2226C82.0794 68.0675 82.6359 67.9118 83.1228 67.7964C87.1402 66.7896 90.9605 65.5538 94.5229 64.1085C97.1968 63.0475 100.121 62.1985 103.212 61.5857C106.201 60.7709 109.051 59.8776 111.902 58.9078C114.279 58.0939 117.042 57.7015 119.827 57.7824C121.634 57.9763 123.372 58.2864 125.04 58.7521C130.255 60.1494 135.746 61.3146 141.306 62.1682C145.685 62.5992 149.798 63.6406 153.264 65.1957C158.127 67.4453 163.342 69.4252 168.973 71.0937C173.026 72.3055 176.25 74.2291 178.149 76.5668C178.287 76.8386 178.567 77.0708 178.983 77.2265C179.399 77.4205 179.955 77.4587 180.442 77.3815C181.208 77.2648 181.972 77.0708 182.596 76.799C184.264 76.0614 185.933 75.4017 187.603 74.742C189.847 74.0625 191.946 73.2419 193.857 72.2963C194.553 71.9091 195.178 71.5212 195.734 71.0554C196.012 70.899 196.15 70.705 196.291 70.5125C196.414 70.3805 196.438 70.2269 196.359 70.0849C196.291 69.9682 196.15 69.8528 195.944 69.8131C195.566 69.6853 195.132 69.6182 194.691 69.6192C192.953 69.6192 191.287 69.891 189.757 70.3957C189.474 70.4762 189.216 70.5806 188.991 70.705C188.804 70.8184 188.562 70.8995 188.295 70.9386C187.183 71.0936 186.072 71.0937 184.958 70.899C184.531 70.8219 184.131 70.7038 183.776 70.55C183.57 70.4728 183.429 70.3561 183.29 70.201V69.9675C183.361 69.6581 183.428 69.3077 183.499 68.9977V68.8037C183.499 68.7641 183.428 68.7266 183.428 68.6869C183.359 68.6869 183.359 68.6487 183.29 68.6487H183.154C183.085 68.6869 182.945 68.7259 182.876 68.7641C182.738 68.8037 182.596 68.8809 182.458 68.9581C181.762 69.307 180.928 69.5406 179.955 69.5406C179.053 69.5406 178.149 69.3856 177.453 69.0352C177.243 68.9581 177.105 68.8802 177.037 68.7634C176.202 67.9883 175.228 67.2889 173.978 66.746L163.827 62.0104C161.605 61.2353 159.45 60.3809 157.364 59.5273C156.808 59.2165 156.252 58.9843 155.696 58.7507C154.514 58.3621 153.333 58.091 152.012 57.8192C151.179 57.6644 150.402 57.428 149.718 57.1212C148.884 56.6937 148.536 56.1125 148.675 55.4903C147.631 55.2964 146.588 55.0642 145.615 54.7528C142.622 53.8904 139.762 52.8908 137.065 51.7642C136.856 51.687 136.649 51.5702 136.579 51.4152C136.308 51.0782 136.099 50.727 135.953 50.3669C135.828 49.9864 135.593 49.6197 135.257 49.281C135.048 49.0092 134.561 48.8535 134.076 48.7756L133.313 48.6588C132.617 48.5038 131.992 48.1548 131.644 47.7669C131.364 47.3394 131.226 46.8736 131.297 46.4475C131.503 45.477 131.851 44.5454 132.2 43.6528C132.896 40.6643 131.993 37.6368 129.559 34.9589C129.191 34.5969 128.933 34.2034 128.795 33.7945C128.586 32.6301 128.795 31.3885 129.42 30.2623C130.335 28.6996 130.941 27.0857 131.227 25.4496C131.436 23.7422 132.27 22.112 133.59 20.5597C134.077 20.1328 134.424 19.6281 134.702 19.1234C135.33 17.6483 135.677 16.1738 135.677 14.6986C135.606 13.0302 136.093 11.3993 137.136 9.88588C137.275 9.73086 137.414 9.57514 137.623 9.45904C138.083 9.27538 138.603 9.14361 139.153 9.07113C140.056 8.95504 140.96 8.76039 141.723 8.48927C143.532 7.67382 144.644 6.47116 144.714 5.18995C144.714 3.8705 143.739 2.62821 141.932 1.81346C140.766 1.11875 139.225 0.655653 137.544 0.494542C135.863 0.333432 134.134 0.483118 132.619 0.920851C129.631 2.00742 128.169 3.94766 128.797 5.8886C129.283 6.85907 129.838 7.79061 130.603 8.72215C131.299 9.5369 131.576 10.4302 131.506 11.3221C131.236 12.9128 130.459 14.4637 129.213 15.902C128.307 16.9885 127.615 18.114 127.268 19.2785C126.849 20.8308 126.224 22.3449 125.32 23.7811C124.834 24.6737 123.79 25.4113 122.402 25.916C121.915 26.11 121.287 26.11 120.733 25.955C120.213 25.8237 119.742 25.6393 119.343 25.4113L116.493 23.9362C115.657 23.5398 114.599 23.3201 113.503 23.3154C112.118 23.3766 110.777 23.615 109.584 24.0121C108.391 24.4092 107.377 24.9543 106.621 25.6053C105.787 26.2261 105.648 27.0415 106.135 27.7784L107.803 29.6415C108.29 30.0683 108.568 30.573 108.707 31.116C108.777 31.3489 108.637 31.5817 108.429 31.8146C108.148 32.044 107.729 32.2093 107.248 32.2804C106.483 32.4361 105.649 32.4743 104.885 32.4743C102.591 34.2596 100.575 36.1226 98.9068 38.1018C97.9228 39.0422 96.8071 39.9376 95.57 40.7797C93.6936 42.3327 91.9555 43.9622 90.2858 45.5931C89.3096 46.4481 88.1978 47.185 86.807 47.8455V47.8455Z" fill="black"/>
<path fill-rule="evenodd" clip-rule="evenodd" d="M173.908 56.1897L173.768 57.0045H181.137L182.458 49.5535H186.699L188.02 57.0045H195.736L189.063 25.8771H180.304L173.908 56.1897V56.1897Z" fill="black"/>
<path fill-rule="evenodd" clip-rule="evenodd" d="M77.5609 42.722L73.5293 37.0549H71.374L67.4121 42.722H69.5661L70.4003 41.4401H74.5017L75.3359 42.722H77.5609V42.722ZM73.8082 40.471H71.0279L72.4186 38.375L73.8082 40.471ZM118.297 42.9542H120.313V37.2885H118.297V42.9542ZM160.491 43.5368H162.577V41.2079H162.993C163.273 41.1683 163.55 41.2079 163.827 41.2079C164.011 41.2363 164.179 41.2895 164.317 41.3629C164.523 41.4026 164.662 41.5193 164.804 41.5965C165.151 41.8287 165.429 42.0623 165.706 42.3341L167.168 43.5368H169.671L168.418 42.4509C168.209 42.2569 167.931 42.0623 167.722 41.8683C167.314 41.5293 166.766 41.2499 166.125 41.0536C166.402 41.0536 166.679 41.0139 166.888 40.9368C167.408 40.8674 167.873 40.7036 168.209 40.471C168.627 40.1992 168.836 39.8488 168.836 39.4623C168.836 39.3851 168.837 39.2684 168.766 39.1905C168.695 38.6851 168.07 38.2583 167.235 38.0643C167.006 37.9854 166.741 37.9451 166.472 37.9482C165.915 37.9093 165.358 37.8703 164.804 37.9093H160.492V43.5368H160.491V43.5368ZM162.577 40.2771V38.8408H165.289C165.427 38.8408 165.567 38.8804 165.637 38.8804H165.843C165.992 38.9021 166.131 38.941 166.25 38.9945C166.37 39.0481 166.469 39.1151 166.539 39.1912C166.677 39.3066 166.678 39.4234 166.678 39.5402V39.6952C166.644 39.8204 166.548 39.9378 166.401 40.0338C166.253 40.1299 166.06 40.2007 165.843 40.2381C165.705 40.2381 165.566 40.2381 165.427 40.2778H162.577V40.2771V40.2771Z" fill="#EFEFF0"/>
</g>
<defs>
<clipPath id="clip0_232_119">
<rect width="240" height="78" fill="white"/>
</clipPath>
</defs>
</svg>
