<svg width="240" height="94" viewBox="0 0 240 94" fill="none" xmlns="http://www.w3.org/2000/svg">
<path fill-rule="evenodd" clip-rule="evenodd" d="M40.2285 57.5434C38.3201 57.5434 36.8259 58.5443 36.8259 60.0048C36.8259 61.4663 38.3278 62.4614 40.2285 62.4614C42.128 62.4614 43.6311 61.4595 43.6311 60.0048C43.6311 58.5443 42.1357 57.5434 40.2285 57.5434ZM40.2285 61.7576C38.8677 61.7576 37.8584 61.0124 37.8584 60.0048C37.8584 58.9981 38.86 58.2472 40.2285 58.2472C41.5803 58.2472 42.5974 59.0097 42.5974 60.0048C42.5974 60.9942 41.5714 61.7576 40.2285 61.7576ZM73.3376 48.9342H56.7735L58.6563 27.3506L47.8995 48.9342H32.5178L56.9235 0.149033H73.2902L71.401 22.0287L82.3617 0.149033H97.7446L73.3376 48.9342ZM75.3359 48.9342L99.7403 0.149033H115.122L90.7175 48.9342H75.3359Z" fill="black"/>
<path fill-rule="evenodd" clip-rule="evenodd" d="M30.7438 32.1186C9.24953 51.0418 -11.0263 76.2204 6.88322 87.815C24.2375 99.051 45.9293 92.3984 60.7197 87.9631C75.5101 83.5277 238.988 30.3072 238.988 30.3072C240.566 29.7159 240.271 28.9765 238.298 29.3457C237.503 29.4947 60.3259 65.4911 60.3259 65.4911C37.8428 70.2226 12.2071 59.9106 30.7438 32.1186V32.1186Z" fill="black"/>
<path fill-rule="evenodd" clip-rule="evenodd" d="M40.808 60.1779C41.2851 60.1606 41.6583 59.976 41.6583 59.4808C41.6583 58.8424 41.1017 58.6818 40.1719 58.6818H38.8354V61.3288H39.7268V60.2019H39.8769L40.6887 61.3288H41.7135L40.808 60.1779V60.1779ZM40.236 59.749H39.7281V59.1346H40.1565C40.4194 59.1346 40.7208 59.1577 40.7208 59.4144C40.7208 59.6894 40.5464 59.749 40.236 59.749ZM194.85 0C192.942 0 191.448 1.00187 191.448 2.46142C191.448 3.92192 192.951 4.91707 194.85 4.91707C196.75 4.91707 198.253 3.91519 198.253 2.46142C198.254 1.00187 196.76 0 194.85 0ZM194.85 4.21518C193.49 4.21518 192.48 3.47003 192.48 2.46238C192.48 1.4557 193.482 0.704772 194.85 0.704772C196.202 0.704772 197.22 1.46724 197.22 2.46238C197.22 3.45176 196.194 4.21518 194.85 4.21518Z" fill="black"/>
<path fill-rule="evenodd" clip-rule="evenodd" d="M195.431 2.63449C195.908 2.61718 196.283 2.43258 196.283 1.93741C196.283 1.29898 195.725 1.13841 194.796 1.13841H193.46V3.78444H194.35V2.65853H194.501L195.312 3.78444H196.338L195.431 2.63449ZM194.858 2.20566H194.35V1.59127H194.78C195.041 1.59127 195.344 1.61531 195.344 1.87203C195.344 2.14605 195.168 2.20566 194.858 2.20566V2.20566ZM184.716 8.28037L188.849 0.149033H141.915L125.8 14.7849L133.24 0.149033H117.661L93.4517 48.9342H108.833L119.169 28.5332L119.877 48.9342L167.074 48.8573L171.567 39.4731H153.623L159.519 27.6467H174.308L178.858 18.5549H164.069L169.139 8.28037H184.716V8.28037ZM135.137 45.6815L134.151 20.2548L157.407 1.11245L135.137 45.6815V45.6815Z" fill="black"/>
</svg>
