<svg width="240" height="64" viewBox="0 0 240 64" fill="none" xmlns="http://www.w3.org/2000/svg">
<path d="M128.845 0.261066C128.063 0.325404 127.311 1.86132 125.799 2.66145C124.694 3.23891 123.314 3.20278 122.581 3.91669C122.303 4.1834 122.393 4.63866 122.077 5.07579C121.461 5.95004 119.288 6.0282 119.288 6.98075C119.28 8.00944 121.1 8.20591 122.675 8.9358C123.905 9.52334 124.025 9.92837 125.514 10.2131C126.785 10.4438 128.676 9.68972 130.379 9.96046C131.778 10.1831 133.116 10.3435 133.432 11.1095C133.71 11.8153 133.413 12.9101 131.718 12.7839C131.146 12.7498 128.668 12.3046 125.623 12.477C121.949 12.6997 117.757 13.3392 117.348 15.5231C117.122 16.7442 119.953 18.184 122.686 17.8912C124.577 17.6926 123.683 16.5037 124.713 15.9261C126.063 15.1863 133.71 18.5088 140.82 18.5088C143.813 18.5088 146.039 18.1058 148.25 16.8706C148.456 16.7763 148.708 16.5738 149.028 16.5617C149.329 16.5738 149.855 16.7321 150.028 16.8003C155.754 19.2547 160.082 24.1776 181.125 24.2358C184.084 24.2437 187.457 24.9978 190.209 26.3372C192.664 27.5484 194.1 29.4312 195.495 31.3422C197.601 34.2098 201.376 36.9991 207.098 40.1032C207.41 40.2696 212.121 42.2227 212.497 42.3691C212.557 42.3891 212.903 42.8303 212.783 43.0769C212.644 44.9378 212.136 50.3498 219.701 50.5945C221.551 50.6446 221.066 49.9508 221.066 49.4735C221.062 48.5311 220.738 47.5946 221.671 46.6301C222.945 45.3028 218.968 44.6911 219.084 41.8216C219.167 39.682 215.798 40.0469 214.087 38.4167C213.102 37.4722 212.226 36.971 212.29 35.8158C212.674 29.3151 209.696 25.0438 208.211 23.9951C207.053 23.2031 206.094 22.8883 207.154 22.5213C213.467 20.2975 214.9 18.228 214.9 18.228C218.257 14.0191 221.276 10.1749 225.438 8.4827C226.277 8.13366 228.427 7.27754 229.747 6.94059C233.631 5.964 235.676 5.37258 236.804 4.78691C238.59 3.85854 240 1.9235 238.289 0.75044C236.161 -0.697388 232.48 0.451634 230.856 0.964901C219.25 4.63866 217.539 11.1194 213.52 14.8412C210.313 17.8149 205.098 19.9987 200.436 20.1772C196.939 20.3155 193.172 19.9385 189.419 19.0602C180.294 16.9267 175.301 14.1715 174.124 13.6843C171.673 12.6756 152.641 2.71154 137.222 2.30449C137.222 2.30449 135.308 0.26121 134.827 0.227098C133.699 0.150813 132.545 1.44823 131.718 1.59878C130.939 1.73696 129.631 0.192986 128.845 0.26121V0.261066ZM60.9654 59.7304C59.514 59.7123 58.281 59.0766 58.281 58.2906L58.2847 32.6396H42.4333V60.9154C42.4333 62.301 44.5386 63.4321 47.1216 63.4321H74.8278C77.4294 63.4321 79.5088 62.301 79.5088 60.9154V32.6396H63.6725L63.6574 58.2906C63.6574 59.0766 62.4241 59.7123 60.9654 59.7304ZM114.039 32.6396H90.0475C87.2089 32.6396 84.8966 33.8709 84.8966 35.4009V63.4319H100.763V37.7191C100.774 36.931 101.969 36.3074 103.444 36.3074C104.925 36.3074 106.113 36.9169 106.147 37.697V63.4321H121.949V37.6968C121.968 36.9168 123.156 36.3072 124.634 36.3072C126.1 36.3072 127.311 36.9309 127.322 37.7189V63.4321H143.188V35.4009C143.188 33.8709 140.872 32.6396 138.034 32.6396H114.039ZM21.2203 37.773C21.2316 36.9168 19.9233 36.3072 18.5359 36.3072H15.8439V51.8818H18.5359C19.9346 51.8818 21.2319 51.2883 21.2203 50.4362V37.773ZM31.8569 55.6938H15.8439V63.4321H0V32.6396H31.9587C34.8196 32.6396 37.0528 33.8789 37.0528 35.413V52.9206C37.0528 54.4567 34.7332 55.6938 31.8569 55.6938ZM197.559 56.546C194.375 56.546 191.701 58.0138 191.701 59.7926C191.701 61.5772 194.375 63.033 197.661 63.033C200.921 63.033 203.56 61.5772 203.56 59.7926C203.56 58.0098 200.921 56.546 197.661 56.546H197.559ZM204.695 59.7825C204.695 61.8739 201.552 63.5744 197.661 63.5744C193.728 63.5744 190.57 61.8861 190.57 59.7825C190.57 57.7191 193.728 55.9946 197.544 55.9946C201.552 55.9946 204.695 57.6671 204.695 59.7825Z" fill="black"/>
<path d="M196.928 59.5418C198.029 59.5418 198.609 59.3333 198.609 58.9163C198.609 58.5453 198.048 58.3548 196.977 58.3548H196.661V59.5418H196.928ZM200.985 61.9762H199.094L196.661 60.2497V61.9762H195.116V57.6108H196.74C198.947 57.6108 200.12 58.056 200.12 58.9062C200.12 59.4736 199.428 59.9771 198.462 60.1274L198.349 60.1495L200.985 61.9762ZM169.79 51.8879V37.709C169.752 36.9248 168.568 36.3233 167.09 36.3233C165.627 36.3233 164.417 36.9489 164.406 37.731V51.8879H169.79ZM169.79 63.4321V55.7018H164.406V63.4321H148.569V35.4009C148.569 33.8709 150.881 32.6396 153.72 32.6396H180.475C183.321 32.6396 185.633 33.8709 185.633 35.4009V63.4319L169.79 63.4321Z" fill="black"/>
</svg>
