<svg width="240" height="110" viewBox="0 0 240 110" fill="none" xmlns="http://www.w3.org/2000/svg">
<path fill-rule="evenodd" clip-rule="evenodd" d="M191.244 67.7037C187.843 66.6126 183.424 65.9882 177.979 65.9882C172.879 65.9882 168.459 66.6126 164.721 67.7037C160.979 69.1047 158.938 70.8212 158.938 73.0023C158.938 75.1846 160.979 76.7431 164.721 78.1452C168.459 79.2363 172.88 79.8607 177.979 79.8607C183.424 79.8607 187.843 79.2363 191.244 78.1452C195.325 76.7431 197.025 75.1846 197.025 73.0023C197.024 70.8212 195.325 69.1047 191.244 67.7037ZM177.978 69.8848C180.361 69.8848 182.061 70.1969 183.761 70.6637C185.124 71.2881 186.142 71.9101 186.142 72.6902C186.479 74.8724 183.761 75.9636 177.978 75.9636C175.597 75.9636 173.559 75.6514 171.86 75.0271C170.497 74.4039 169.819 73.6249 169.819 72.6896C170.156 71.9095 170.84 71.2875 172.197 70.6632C173.898 70.1969 175.597 69.8848 177.978 69.8848ZM235.109 66.4551H222.867L210.967 71.6002V62.2486H199.743V79.5485H210.967V72.5344L222.186 79.5485H236.471L221.849 72.067L235.109 66.4551ZM98.7461 66.3004C92.9639 66.3004 88.5451 66.9247 85.1435 68.0136C81.7431 69.2622 80.0423 70.8212 79.7024 73.0023C79.7024 77.2099 86.1632 79.3933 99.4272 79.5485H116.09V75.9641H100.106C95.6857 75.8072 92.6252 75.3398 91.6043 74.4051C90.2446 73.4697 90.2446 72.535 91.2644 71.6008C92.6253 70.5097 95.3445 69.8853 98.7461 69.8853H105.547L98.0651 74.4051H108.607L116.089 70.0417V66.301H98.7461V66.3004ZM131.051 62.2486H119.489V79.3933H140.571C145.335 79.3933 149.073 78.769 151.795 77.522C154.856 76.4309 156.216 74.8724 156.556 73.0023C156.556 69.2616 153.157 67.2346 146.355 66.6126L136.835 66.4556L131.733 69.8853H136.154C142.956 69.8853 146.015 70.8218 146.015 73.0029C145.675 74.873 142.616 75.9641 136.835 75.9641H131.051V62.2486ZM3.52856 62.2486V79.3933H15.0905V66.144H25.9727C28.3521 66.4551 30.0529 67.0794 29.7142 68.3251C29.7142 69.1041 29.0331 69.7284 27.6735 69.8842L16.7913 70.351L28.6932 79.5474H42.6358L31.0739 72.3786C38.2157 72.2217 41.6161 70.5085 40.935 67.391C40.935 65.6755 39.2342 64.4286 36.175 63.4944C33.4532 62.7155 30.0529 62.2481 25.9727 62.2481H3.52856V62.2486Z" fill="black"/>
<path fill-rule="evenodd" clip-rule="evenodd" d="M60.6586 66.3004C54.8777 66.3004 50.4576 66.9247 47.056 68.0136C43.6556 69.1047 41.9548 70.8213 41.9548 72.8466C41.6161 77.2099 48.0769 79.3938 60.9986 79.3938H78.0016V75.9641H62.0208C57.5982 75.8072 54.539 75.3398 53.5193 74.4051C52.1584 73.4697 52.1584 72.535 53.1793 71.6008C54.539 70.5097 57.2583 69.8854 60.6599 69.8854H67.4606L59.9801 74.4051H70.5223L78.0029 69.8854V66.301H60.6586V66.3004ZM121.19 34.816L138.872 39.8036L167.096 34.9724C176.621 33.5696 188.863 32.0106 203.484 30.1399C167.439 31.5432 140.234 32.9453 121.19 34.816ZM107.589 40.1158L91.9455 38.2451C83.104 39.3368 74.6025 41.0506 66.782 43.2334C58.9591 45.4145 52.8394 47.9094 48.758 50.5591H75.2836C77.3243 49.1558 80.7246 47.5967 85.1447 46.0382C91.6043 43.545 99.0873 41.6743 107.589 40.1158ZM126.293 43.0764L113.03 41.05C109.968 41.6743 106.229 42.4533 101.807 43.8554C95.6857 45.7261 90.2447 48.0641 85.4846 50.5591H110.308C113.709 48.0641 119.15 45.5708 126.293 43.0764ZM96.0269 30.1399H42.977L96.0256 36.6866C119.49 39.9589 141.253 43.7007 161.32 47.5967L96.0269 30.1399Z" fill="black"/>
</svg>
