<svg width="240" height="64" viewBox="0 0 240 64" fill="none" xmlns="http://www.w3.org/2000/svg">
<g clip-path="url(#clip0_231_112)">
<path fill-rule="evenodd" clip-rule="evenodd" d="M-0.453125 0.20639H25.0963L39.2534 38.5306L53.0637 0.20639H228.117L222.248 11.2147H74.472L52.0288 61.6343H26.478L-0.453125 0.20639Z" fill="black"/>
<path fill-rule="evenodd" clip-rule="evenodd" d="M232.606 47.3645C233.296 53.3438 224.665 62.4496 205.673 62.4496C183.578 62.4496 178.743 51.7138 178.743 47.2286H196.697C196.697 49.8103 202.223 52.3931 206.365 52.3931C210.509 52.3931 214.654 50.3541 214.654 48.9956C214.654 47.6359 213.273 45.5981 206.714 43.8311C185.304 38.8025 180.471 32.9582 180.471 27.9302C179.78 21.9505 187.03 13.1166 206.02 13.1166C225.012 13.1166 230.19 23.5815 230.19 27.9302H213.273C213.273 25.4839 209.129 23.7175 204.986 23.7175C200.843 23.7175 198.079 25.348 198.079 26.7076C198.079 28.0667 198.77 29.2899 205.332 31.0563C214.308 32.6874 232.606 37.9873 232.606 47.3645ZM233.631 58.9167C234.358 58.9163 235.078 58.9723 235.75 59.0816C236.422 59.1909 237.032 59.3514 237.546 59.5537C238.06 59.756 238.468 59.9963 238.746 60.2608C239.023 60.5252 239.166 60.8087 239.165 61.0948C239.169 61.382 239.03 61.6667 238.754 61.9326C238.478 62.1984 238.071 62.4402 237.556 62.6439C237.042 62.8476 236.43 63.0092 235.757 63.1195C235.083 63.2298 234.361 63.2865 233.631 63.2864C232.899 63.2873 232.174 63.2312 231.498 63.1213C230.821 63.0115 230.206 62.8501 229.689 62.6464C229.171 62.4428 228.761 62.2008 228.482 61.9345C228.203 61.6682 228.061 61.3829 228.063 61.0948C228.063 59.8889 230.552 58.9167 233.631 58.9167V58.4101C229.837 58.4101 226.774 59.6154 226.774 61.0954C226.773 61.4499 226.95 61.8011 227.294 62.1287C227.638 62.4564 228.143 62.7541 228.78 63.0048C229.417 63.2555 230.173 63.4543 231.006 63.5897C231.838 63.7252 232.73 63.7946 233.631 63.7941C237.39 63.7941 240.453 62.5888 240.453 61.0954C240.45 60.3835 239.731 59.7012 238.452 59.1978C237.173 58.6945 235.439 58.4112 233.631 58.4101V58.9167Z" fill="black"/>
<path fill-rule="evenodd" clip-rule="evenodd" d="M232.258 60.0886H234.049C234.763 60.0886 235.808 60.0886 235.808 60.4646C235.808 60.8348 235.232 60.9103 234.415 60.9027H232.258V61.3349H233.701L235.336 62.5678H237.025L235.231 61.3349C236.537 61.3004 237.25 61.0808 237.25 60.5542C237.25 60.2526 237.041 59.9715 236.379 59.801C235.823 59.664 235.006 59.6564 234.38 59.6564H230.81V62.5678H232.256V60.0886H232.258ZM83.4476 45.3267L90.3535 27.6589L97.2593 45.3267H83.4476ZM79.3052 55.2473H100.712L103.474 61.6344H137.655V36.3568L158.717 61.6344H176.326V14.6122H158.371V38.5312L138.346 14.6122H119.703V58.7807L100.367 14.6122H80.3402L59.624 61.6344H77.2327L79.3052 55.2473Z" fill="black"/>
</g>
<defs>
<clipPath id="clip0_231_112">
<rect width="240" height="64" fill="white"/>
</clipPath>
</defs>
</svg>
