<svg width="31" height="30" viewBox="0 0 31 30" fill="none" xmlns="http://www.w3.org/2000/svg">
<g clip-path="url(#clip0_97_45)">
<path d="M29.748 19.7051C29.0647 18.6615 27.7616 18.4359 26.835 19.2088L20.6007 24.3751H14.3194C13.8638 24.3751 13.5329 23.9503 13.5329 23.4381C13.5329 22.9254 13.9105 22.5006 14.3194 22.5006H18.3949C19.1814 22.5006 19.9965 21.8631 20.1329 20.9409C20.3022 19.769 19.5017 18.7506 18.4861 18.7506H10.1074C8.74805 18.7506 7.34075 19.2926 6.24701 20.2887L3.82513 22.5001L0.940755 22.4473C0.531953 22.4473 0.154297 22.9277 0.154297 23.4375V29.0613C0.154297 29.5781 0.531953 30 0.940755 30H18.9668C20.1142 30 21.2543 29.5788 22.1803 28.8123L29.2168 22.9811C30.2324 22.2129 30.4303 20.748 29.748 19.7051ZM14.7012 10.2539C14.3053 10.1895 13.7845 9.97852 13.3262 9.79102L13.071 9.69141C12.4199 9.38086 11.7064 9.81445 11.4772 10.4941C11.248 11.1738 11.5877 12.0293 12.2371 12.2895L12.4796 12.3865C12.9215 12.5658 13.4108 12.7436 13.9061 12.8735V13.5938C13.9061 14.3701 14.465 15 15.1551 15C15.8452 15 16.4051 14.3701 16.4051 13.5938V12.9844C17.7212 12.649 18.6384 11.7041 18.8061 10.3055C19.2586 7.37285 16.7806 6.57539 15.4509 6.14824L15.1751 6.04102C13.8053 5.60391 13.8835 5.41523 13.9199 5.17441C13.9801 4.77797 14.7168 4.58496 15.5975 4.74135C15.8547 4.78713 16.1897 4.89059 16.621 5.05904C17.2736 5.30988 17.9861 4.92357 18.2105 4.18951C18.435 3.45545 18.0903 2.65494 17.4376 2.40064C17.0417 2.24672 16.7126 2.14529 16.4053 2.06543V1.40625C16.4053 0.629883 15.8454 0 15.1553 0C14.4652 0 13.9064 0.629883 13.9064 1.40625V2.02266C12.5918 2.35723 11.6699 3.2959 11.4095 4.69512C11.0085 7.59375 13.5241 8.42578 14.472 8.74219L14.8104 8.85205C16.4594 9.38303 16.4328 9.54873 16.3907 9.82705C16.3314 10.2246 15.597 10.418 14.7012 10.2539Z" fill="#FF7D1A"/>
</g>
<defs>
<clipPath id="clip0_97_45">
<rect width="30" height="30" fill="white" transform="translate(0.154297)"/>
</clipPath>
</defs>
</svg>
