<svg width="37" height="26" viewBox="0 0 37 26" fill="none" xmlns="http://www.w3.org/2000/svg">
<g clip-path="url(#clip0_97_37)">
<path d="M6.46669 0C4.9755 0 3.76669 1.09129 3.76669 2.4375V4.875H1.06669C0.569606 4.875 0.166687 5.24062 0.166687 5.6875C0.166687 6.13438 0.569606 6.5 1.06669 6.5H15.4667C15.9617 6.5 16.3667 6.86562 16.3667 7.3125C16.3667 7.75938 15.9617 8.125 15.4667 8.125H2.86669C2.36944 8.125 1.96669 8.49063 1.96669 8.9375C1.96669 9.38437 2.36944 9.75 2.86669 9.75H13.6667C14.1617 9.75 14.5667 10.1156 14.5667 10.5625C14.5667 11.0094 14.1617 11.375 13.6667 11.375H1.06669C0.569606 11.375 0.166687 11.7406 0.166687 12.1875C0.166687 12.6344 0.569606 13 1.06669 13H11.8667C12.3617 13 12.7667 13.3656 12.7667 13.8125C12.7667 14.2594 12.3617 14.625 11.8667 14.625H3.76669V21.125C3.76669 23.8164 6.13481 26 9.16669 26C12.1479 26 14.5667 23.8164 14.5667 21.125H21.7667C21.7667 23.8164 24.1348 26 27.1667 26C30.1479 26 32.5667 23.8164 32.5667 21.125H34.3667C35.3623 21.125 36.1667 20.3988 36.1667 19.5C36.1667 18.6012 35.3623 17.875 34.3667 17.875V12.0504C34.3667 11.1871 33.9898 10.3594 33.3148 9.75L28.9667 5.82461C28.2411 5.21523 27.3748 4.875 26.4186 4.875H23.5667V2.4375C23.5667 1.09129 22.3573 0 20.8667 0H6.46669ZM30.7667 12.0504V13H23.5667V8.125H26.4186L30.7667 12.0504ZM9.16669 23.5625C7.67606 23.5625 6.46669 22.4707 6.46669 21.125C6.46669 19.7793 7.67606 18.6875 9.16669 18.6875C10.6573 18.6875 11.8667 19.7793 11.8667 21.125C11.8667 22.4707 10.6573 23.5625 9.16669 23.5625ZM29.8667 21.125C29.8667 22.4707 28.6573 23.5625 27.1667 23.5625C25.6761 23.5625 24.4667 22.4707 24.4667 21.125C24.4667 19.7793 25.6761 18.6875 27.1667 18.6875C28.6573 18.6875 29.8667 19.7793 29.8667 21.125Z" fill="#FF7D1A"/>
</g>
<defs>
<clipPath id="clip0_97_37">
<rect width="36" height="26" fill="white" transform="translate(0.166687)"/>
</clipPath>
</defs>
</svg>
